<svg width="311" height="52" viewBox="0 0 311 52" fill="none" xmlns="http://www.w3.org/2000/svg">
<path d="M40.6914 21.16C40.3314 21.16 40.0381 21.0733 39.8114 20.9C39.5981 20.7267 39.4247 20.4533 39.2914 20.08L35.1114 8.26C34.9647 7.83333 34.9914 7.47333 35.1914 7.18C35.4047 6.88667 35.7581 6.74 36.2514 6.74C36.6114 6.74 36.8914 6.82667 37.0914 7C37.2914 7.16 37.4514 7.42 37.5714 7.78L41.1714 18.46H40.3714L44.1314 7.8C44.2647 7.44 44.4314 7.17333 44.6314 7C44.8314 6.82667 45.0914 6.74 45.4114 6.74C45.7314 6.74 45.9847 6.82667 46.1714 7C46.3581 7.17333 46.5181 7.44667 46.6514 7.82L50.2914 18.46H49.5914L53.2514 7.78C53.3714 7.43333 53.5314 7.17333 53.7314 7C53.9314 6.82667 54.2047 6.74 54.5514 6.74C54.9781 6.74 55.2914 6.88667 55.4914 7.18C55.6914 7.47333 55.7181 7.83333 55.5714 8.26L51.3514 20.1C51.2181 20.46 51.0447 20.7267 50.8314 20.9C50.6181 21.0733 50.3314 21.16 49.9714 21.16C49.6114 21.16 49.3247 21.0733 49.1114 20.9C48.8981 20.7267 48.7247 20.4533 48.5914 20.08L45.1114 10.16H45.5714L42.0514 20.1C41.9181 20.46 41.7447 20.7267 41.5314 20.9C41.3314 21.0733 41.0514 21.16 40.6914 21.16ZM61.327 21.2C60.2204 21.2 59.267 20.9933 58.467 20.58C57.667 20.1667 57.047 19.58 56.607 18.82C56.1804 18.06 55.967 17.16 55.967 16.12C55.967 15.1067 56.1737 14.22 56.587 13.46C57.0137 12.7 57.5937 12.1067 58.327 11.68C59.0737 11.24 59.9204 11.02 60.867 11.02C61.5604 11.02 62.1804 11.1333 62.727 11.36C63.287 11.5867 63.7604 11.9133 64.147 12.34C64.547 12.7667 64.847 13.2867 65.047 13.9C65.2604 14.5 65.367 15.18 65.367 15.94C65.367 16.18 65.2804 16.3667 65.107 16.5C64.947 16.62 64.7137 16.68 64.407 16.68H57.987V15.24H63.607L63.287 15.54C63.287 14.9267 63.1937 14.4133 63.007 14C62.8337 13.5867 62.5737 13.2733 62.227 13.06C61.8937 12.8333 61.4737 12.72 60.967 12.72C60.407 12.72 59.927 12.8533 59.527 13.12C59.1404 13.3733 58.8404 13.74 58.627 14.22C58.427 14.6867 58.327 15.2467 58.327 15.9V16.04C58.327 17.1333 58.5804 17.9533 59.087 18.5C59.607 19.0333 60.367 19.3 61.367 19.3C61.7137 19.3 62.1004 19.26 62.527 19.18C62.967 19.0867 63.3804 18.9333 63.767 18.72C64.047 18.56 64.2937 18.4933 64.507 18.52C64.7204 18.5333 64.887 18.6067 65.007 18.74C65.1404 18.8733 65.2204 19.04 65.247 19.24C65.2737 19.4267 65.2337 19.62 65.127 19.82C65.0337 20.02 64.867 20.1933 64.627 20.34C64.1604 20.6333 63.6204 20.8533 63.007 21C62.407 21.1333 61.847 21.2 61.327 21.2ZM70.6869 21.2C69.5802 21.2 68.7469 20.8867 68.1869 20.26C67.6269 19.62 67.3469 18.6867 67.3469 17.46V8C67.3469 7.58667 67.4535 7.27333 67.6669 7.06C67.8802 6.84667 68.1869 6.74 68.5869 6.74C68.9869 6.74 69.2935 6.84667 69.5069 7.06C69.7335 7.27333 69.8469 7.58667 69.8469 8V17.34C69.8469 17.9533 69.9735 18.4067 70.2269 18.7C70.4935 18.9933 70.8669 19.14 71.3469 19.14C71.4535 19.14 71.5535 19.14 71.6469 19.14C71.7402 19.1267 71.8335 19.1133 71.9269 19.1C72.1135 19.0733 72.2402 19.1267 72.3069 19.26C72.3735 19.38 72.4069 19.6333 72.4069 20.02C72.4069 20.3533 72.3402 20.6133 72.2069 20.8C72.0735 20.9867 71.8535 21.1 71.5469 21.14C71.4135 21.1533 71.2735 21.1667 71.1269 21.18C70.9802 21.1933 70.8335 21.2 70.6869 21.2ZM78.1559 21.2C77.1293 21.2 76.2359 20.9933 75.4759 20.58C74.7159 20.1533 74.1293 19.5533 73.7159 18.78C73.3026 18.0067 73.0959 17.1 73.0959 16.06C73.0959 15.2733 73.2093 14.5733 73.4359 13.96C73.6759 13.3333 74.0159 12.8067 74.4559 12.38C74.8959 11.94 75.4293 11.6067 76.0559 11.38C76.6826 11.14 77.3826 11.02 78.1559 11.02C78.5959 11.02 79.0693 11.08 79.5759 11.2C80.0959 11.32 80.5826 11.52 81.0359 11.8C81.2493 11.9333 81.3893 12.0933 81.4559 12.28C81.5226 12.4667 81.5359 12.66 81.4959 12.86C81.4559 13.0467 81.3693 13.2133 81.2359 13.36C81.1159 13.4933 80.9626 13.58 80.7759 13.62C80.5893 13.6467 80.3826 13.6 80.1559 13.48C79.8626 13.3067 79.5626 13.18 79.2559 13.1C78.9493 13.0067 78.6559 12.96 78.3759 12.96C77.9359 12.96 77.5493 13.0333 77.2159 13.18C76.8826 13.3133 76.5959 13.5133 76.3559 13.78C76.1293 14.0333 75.9559 14.3533 75.8359 14.74C75.7159 15.1267 75.6559 15.5733 75.6559 16.08C75.6559 17.0667 75.8893 17.8467 76.3559 18.42C76.8359 18.98 77.5093 19.26 78.3759 19.26C78.6559 19.26 78.9426 19.22 79.2359 19.14C79.5426 19.06 79.8493 18.9333 80.1559 18.76C80.3826 18.64 80.5826 18.6 80.7559 18.64C80.9426 18.68 81.0959 18.7733 81.2159 18.92C81.3359 19.0533 81.4093 19.22 81.4359 19.42C81.4626 19.6067 81.4359 19.7933 81.3559 19.98C81.2893 20.1667 81.1559 20.32 80.9559 20.44C80.5159 20.7067 80.0493 20.9 79.5559 21.02C79.0626 21.14 78.5959 21.2 78.1559 21.2ZM87.3342 21.2C86.3209 21.2 85.4409 20.9933 84.6942 20.58C83.9476 20.1667 83.3676 19.58 82.9542 18.82C82.5409 18.0467 82.3342 17.14 82.3342 16.1C82.3342 15.3133 82.4476 14.6133 82.6742 14C82.9142 13.3733 83.2542 12.84 83.6942 12.4C84.1342 11.9467 84.6609 11.6067 85.2742 11.38C85.8876 11.14 86.5742 11.02 87.3342 11.02C88.3476 11.02 89.2276 11.2267 89.9742 11.64C90.7209 12.0533 91.3009 12.64 91.7142 13.4C92.1276 14.16 92.3342 15.06 92.3342 16.1C92.3342 16.8867 92.2142 17.5933 91.9742 18.22C91.7476 18.8467 91.4142 19.3867 90.9742 19.84C90.5342 20.28 90.0076 20.62 89.3942 20.86C88.7809 21.0867 88.0942 21.2 87.3342 21.2ZM87.3342 19.3C87.8276 19.3 88.2609 19.18 88.6342 18.94C89.0076 18.7 89.2942 18.3467 89.4942 17.88C89.7076 17.4 89.8142 16.8067 89.8142 16.1C89.8142 15.0333 89.5876 14.24 89.1342 13.72C88.6809 13.1867 88.0809 12.92 87.3342 12.92C86.8409 12.92 86.4076 13.04 86.0342 13.28C85.6609 13.5067 85.3676 13.86 85.1542 14.34C84.9542 14.8067 84.8542 15.3933 84.8542 16.1C84.8542 17.1533 85.0809 17.9533 85.5342 18.5C85.9876 19.0333 86.5876 19.3 87.3342 19.3ZM95.6777 21.16C95.2777 21.16 94.971 21.0533 94.7577 20.84C94.5443 20.6133 94.4377 20.2933 94.4377 19.88V12.32C94.4377 11.9067 94.5443 11.5933 94.7577 11.38C94.971 11.1667 95.271 11.06 95.6577 11.06C96.0443 11.06 96.3443 11.1667 96.5577 11.38C96.771 11.5933 96.8777 11.9067 96.8777 12.32V13.78L96.6577 13.18C96.9243 12.5133 97.3377 11.9867 97.8977 11.6C98.4577 11.2133 99.1243 11.02 99.8977 11.02C100.684 11.02 101.331 11.2067 101.838 11.58C102.344 11.9533 102.698 12.5267 102.898 13.3H102.618C102.884 12.5933 103.324 12.04 103.938 11.64C104.551 11.2267 105.258 11.02 106.058 11.02C106.804 11.02 107.418 11.1667 107.898 11.46C108.391 11.7533 108.758 12.2 108.998 12.8C109.238 13.3867 109.358 14.1333 109.358 15.04V19.88C109.358 20.2933 109.244 20.6133 109.018 20.84C108.804 21.0533 108.498 21.16 108.098 21.16C107.698 21.16 107.391 21.0533 107.178 20.84C106.964 20.6133 106.858 20.2933 106.858 19.88V15.14C106.858 14.3933 106.731 13.8467 106.478 13.5C106.238 13.1533 105.824 12.98 105.238 12.98C104.584 12.98 104.071 13.2133 103.698 13.68C103.324 14.1333 103.138 14.7667 103.138 15.58V19.88C103.138 20.2933 103.031 20.6133 102.818 20.84C102.604 21.0533 102.298 21.16 101.898 21.16C101.498 21.16 101.184 21.0533 100.958 20.84C100.744 20.6133 100.638 20.2933 100.638 19.88V15.14C100.638 14.3933 100.511 13.8467 100.258 13.5C100.018 13.1533 99.611 12.98 99.0377 12.98C98.3843 12.98 97.871 13.2133 97.4977 13.68C97.1243 14.1333 96.9377 14.7667 96.9377 15.58V19.88C96.9377 20.7333 96.5177 21.16 95.6777 21.16ZM116.757 21.2C115.65 21.2 114.697 20.9933 113.897 20.58C113.097 20.1667 112.477 19.58 112.037 18.82C111.61 18.06 111.397 17.16 111.397 16.12C111.397 15.1067 111.603 14.22 112.017 13.46C112.443 12.7 113.023 12.1067 113.757 11.68C114.503 11.24 115.35 11.02 116.297 11.02C116.99 11.02 117.61 11.1333 118.157 11.36C118.717 11.5867 119.19 11.9133 119.577 12.34C119.977 12.7667 120.277 13.2867 120.477 13.9C120.69 14.5 120.797 15.18 120.797 15.94C120.797 16.18 120.71 16.3667 120.537 16.5C120.377 16.62 120.143 16.68 119.837 16.68H113.417V15.24H119.037L118.717 15.54C118.717 14.9267 118.623 14.4133 118.437 14C118.263 13.5867 118.003 13.2733 117.657 13.06C117.323 12.8333 116.903 12.72 116.397 12.72C115.837 12.72 115.357 12.8533 114.957 13.12C114.57 13.3733 114.27 13.74 114.057 14.22C113.857 14.6867 113.757 15.2467 113.757 15.9V16.04C113.757 17.1333 114.01 17.9533 114.517 18.5C115.037 19.0333 115.797 19.3 116.797 19.3C117.143 19.3 117.53 19.26 117.957 19.18C118.397 19.0867 118.81 18.9333 119.197 18.72C119.477 18.56 119.723 18.4933 119.937 18.52C120.15 18.5333 120.317 18.6067 120.437 18.74C120.57 18.8733 120.65 19.04 120.677 19.24C120.703 19.4267 120.663 19.62 120.557 19.82C120.463 20.02 120.297 20.1933 120.057 20.34C119.59 20.6333 119.05 20.8533 118.437 21C117.837 21.1333 117.277 21.2 116.757 21.2ZM132.686 21.2C131.82 21.2 131.093 21.0533 130.506 20.76C129.933 20.4667 129.506 20.04 129.226 19.48C128.946 18.9067 128.806 18.2 128.806 17.36V13.1H127.766C127.446 13.1 127.2 13.02 127.026 12.86C126.853 12.6867 126.766 12.4533 126.766 12.16C126.766 11.8533 126.853 11.62 127.026 11.46C127.2 11.3 127.446 11.22 127.766 11.22H128.806V9.4C128.806 8.98667 128.913 8.67333 129.126 8.46C129.353 8.24667 129.666 8.14 130.066 8.14C130.466 8.14 130.773 8.24667 130.986 8.46C131.2 8.67333 131.306 8.98667 131.306 9.4V11.22H133.426C133.746 11.22 133.993 11.3 134.166 11.46C134.34 11.62 134.426 11.8533 134.426 12.16C134.426 12.4533 134.34 12.6867 134.166 12.86C133.993 13.02 133.746 13.1 133.426 13.1H131.306V17.22C131.306 17.86 131.446 18.34 131.726 18.66C132.006 18.98 132.46 19.14 133.086 19.14C133.313 19.14 133.513 19.12 133.686 19.08C133.86 19.04 134.013 19.0133 134.146 19C134.306 18.9867 134.44 19.04 134.546 19.16C134.653 19.2667 134.706 19.4933 134.706 19.84C134.706 20.1067 134.66 20.3467 134.566 20.56C134.486 20.76 134.333 20.9 134.106 20.98C133.933 21.0333 133.706 21.08 133.426 21.12C133.146 21.1733 132.9 21.2 132.686 21.2ZM140.244 21.2C139.231 21.2 138.351 20.9933 137.604 20.58C136.858 20.1667 136.278 19.58 135.864 18.82C135.451 18.0467 135.244 17.14 135.244 16.1C135.244 15.3133 135.358 14.6133 135.584 14C135.824 13.3733 136.164 12.84 136.604 12.4C137.044 11.9467 137.571 11.6067 138.184 11.38C138.798 11.14 139.484 11.02 140.244 11.02C141.258 11.02 142.138 11.2267 142.884 11.64C143.631 12.0533 144.211 12.64 144.624 13.4C145.038 14.16 145.244 15.06 145.244 16.1C145.244 16.8867 145.124 17.5933 144.884 18.22C144.658 18.8467 144.324 19.3867 143.884 19.84C143.444 20.28 142.918 20.62 142.304 20.86C141.691 21.0867 141.004 21.2 140.244 21.2ZM140.244 19.3C140.738 19.3 141.171 19.18 141.544 18.94C141.918 18.7 142.204 18.3467 142.404 17.88C142.618 17.4 142.724 16.8067 142.724 16.1C142.724 15.0333 142.498 14.24 142.044 13.72C141.591 13.1867 140.991 12.92 140.244 12.92C139.751 12.92 139.318 13.04 138.944 13.28C138.571 13.5067 138.278 13.86 138.064 14.34C137.864 14.8067 137.764 15.3933 137.764 16.1C137.764 17.1533 137.991 17.9533 138.444 18.5C138.898 19.0333 139.498 19.3 140.244 19.3Z" fill="#FAFAFA"/>
<path d="M157.658 21.16C157.244 21.16 156.924 21.0467 156.698 20.82C156.484 20.58 156.378 20.2533 156.378 19.84V9.04H152.478C152.131 9.04 151.858 8.94667 151.658 8.76C151.471 8.56 151.377 8.29333 151.377 7.96C151.377 7.61333 151.471 7.35333 151.658 7.18C151.858 6.99333 152.131 6.9 152.478 6.9H162.838C163.184 6.9 163.451 6.99333 163.638 7.18C163.838 7.35333 163.938 7.61333 163.938 7.96C163.938 8.29333 163.838 8.56 163.638 8.76C163.451 8.94667 163.184 9.04 162.838 9.04H158.938V19.84C158.938 20.2533 158.831 20.58 158.618 20.82C158.404 21.0467 158.084 21.16 157.658 21.16ZM166.135 24.76C165.842 24.76 165.602 24.68 165.415 24.52C165.229 24.3733 165.115 24.1733 165.075 23.92C165.049 23.6667 165.095 23.4 165.215 23.12L166.575 20.1V21.14L162.935 12.72C162.815 12.4267 162.775 12.1533 162.815 11.9C162.855 11.6467 162.975 11.4467 163.175 11.3C163.389 11.14 163.675 11.06 164.035 11.06C164.342 11.06 164.589 11.1333 164.775 11.28C164.962 11.4133 165.129 11.6733 165.275 12.06L167.975 18.8H167.375L170.135 12.04C170.282 11.6667 170.455 11.4133 170.655 11.28C170.855 11.1333 171.122 11.06 171.455 11.06C171.749 11.06 171.982 11.14 172.155 11.3C172.329 11.4467 172.435 11.6467 172.475 11.9C172.515 12.14 172.469 12.4067 172.335 12.7L167.475 23.8C167.302 24.1733 167.115 24.4267 166.915 24.56C166.715 24.6933 166.455 24.76 166.135 24.76ZM175.423 24.76C175.023 24.76 174.716 24.6533 174.503 24.44C174.289 24.2267 174.183 23.9133 174.183 23.5V12.32C174.183 11.9067 174.289 11.5933 174.503 11.38C174.716 11.1667 175.016 11.06 175.403 11.06C175.803 11.06 176.109 11.1667 176.323 11.38C176.536 11.5933 176.643 11.9067 176.643 12.32V13.88L176.423 13.28C176.623 12.6 177.029 12.0533 177.643 11.64C178.269 11.2267 178.996 11.02 179.823 11.02C180.676 11.02 181.423 11.2267 182.063 11.64C182.716 12.0533 183.223 12.64 183.583 13.4C183.943 14.1467 184.123 15.0467 184.123 16.1C184.123 17.14 183.943 18.0467 183.583 18.82C183.223 19.58 182.723 20.1667 182.083 20.58C181.443 20.9933 180.689 21.2 179.823 21.2C179.009 21.2 178.296 21 177.683 20.6C177.069 20.1867 176.656 19.6533 176.443 19H176.683V23.5C176.683 23.9133 176.569 24.2267 176.343 24.44C176.129 24.6533 175.823 24.76 175.423 24.76ZM179.123 19.3C179.616 19.3 180.049 19.18 180.423 18.94C180.796 18.7 181.083 18.3467 181.283 17.88C181.496 17.4 181.603 16.8067 181.603 16.1C181.603 15.0333 181.376 14.24 180.923 13.72C180.469 13.1867 179.869 12.92 179.123 12.92C178.629 12.92 178.196 13.04 177.823 13.28C177.449 13.5067 177.156 13.86 176.943 14.34C176.743 14.8067 176.643 15.3933 176.643 16.1C176.643 17.1533 176.869 17.9533 177.323 18.5C177.776 19.0333 178.376 19.3 179.123 19.3ZM190.995 21.2C189.888 21.2 188.935 20.9933 188.135 20.58C187.335 20.1667 186.715 19.58 186.275 18.82C185.848 18.06 185.635 17.16 185.635 16.12C185.635 15.1067 185.842 14.22 186.255 13.46C186.682 12.7 187.262 12.1067 187.995 11.68C188.742 11.24 189.588 11.02 190.535 11.02C191.228 11.02 191.848 11.1333 192.395 11.36C192.955 11.5867 193.428 11.9133 193.815 12.34C194.215 12.7667 194.515 13.2867 194.715 13.9C194.928 14.5 195.035 15.18 195.035 15.94C195.035 16.18 194.948 16.3667 194.775 16.5C194.615 16.62 194.382 16.68 194.075 16.68H187.655V15.24H193.275L192.955 15.54C192.955 14.9267 192.862 14.4133 192.675 14C192.502 13.5867 192.242 13.2733 191.895 13.06C191.562 12.8333 191.142 12.72 190.635 12.72C190.075 12.72 189.595 12.8533 189.195 13.12C188.808 13.3733 188.508 13.74 188.295 14.22C188.095 14.6867 187.995 15.2467 187.995 15.9V16.04C187.995 17.1333 188.248 17.9533 188.755 18.5C189.275 19.0333 190.035 19.3 191.035 19.3C191.382 19.3 191.768 19.26 192.195 19.18C192.635 19.0867 193.048 18.9333 193.435 18.72C193.715 18.56 193.962 18.4933 194.175 18.52C194.388 18.5333 194.555 18.6067 194.675 18.74C194.808 18.8733 194.888 19.04 194.915 19.24C194.942 19.4267 194.902 19.62 194.795 19.82C194.702 20.02 194.535 20.1933 194.295 20.34C193.828 20.6333 193.288 20.8533 192.675 21C192.075 21.1333 191.515 21.2 190.995 21.2ZM202.215 21.16C201.855 21.16 201.562 21.0733 201.335 20.9C201.122 20.7267 200.948 20.4533 200.815 20.08L196.635 8.26C196.488 7.83333 196.515 7.47333 196.715 7.18C196.928 6.88667 197.282 6.74 197.775 6.74C198.135 6.74 198.415 6.82667 198.615 7C198.815 7.16 198.975 7.42 199.095 7.78L202.695 18.46H201.895L205.655 7.8C205.788 7.44 205.955 7.17333 206.155 7C206.355 6.82667 206.615 6.74 206.935 6.74C207.255 6.74 207.508 6.82667 207.695 7C207.882 7.17333 208.042 7.44667 208.175 7.82L211.815 18.46H211.115L214.775 7.78C214.895 7.43333 215.055 7.17333 215.255 7C215.455 6.82667 215.728 6.74 216.075 6.74C216.502 6.74 216.815 6.88667 217.015 7.18C217.215 7.47333 217.242 7.83333 217.095 8.26L212.875 20.1C212.742 20.46 212.568 20.7267 212.355 20.9C212.142 21.0733 211.855 21.16 211.495 21.16C211.135 21.16 210.848 21.0733 210.635 20.9C210.422 20.7267 210.248 20.4533 210.115 20.08L206.635 10.16H207.095L203.575 20.1C203.442 20.46 203.268 20.7267 203.055 20.9C202.855 21.0733 202.575 21.16 202.215 21.16ZM222.85 21.2C221.744 21.2 220.79 20.9933 219.99 20.58C219.19 20.1667 218.57 19.58 218.13 18.82C217.704 18.06 217.49 17.16 217.49 16.12C217.49 15.1067 217.697 14.22 218.11 13.46C218.537 12.7 219.117 12.1067 219.85 11.68C220.597 11.24 221.444 11.02 222.39 11.02C223.084 11.02 223.704 11.1333 224.25 11.36C224.81 11.5867 225.284 11.9133 225.67 12.34C226.07 12.7667 226.37 13.2867 226.57 13.9C226.784 14.5 226.89 15.18 226.89 15.94C226.89 16.18 226.804 16.3667 226.63 16.5C226.47 16.62 226.237 16.68 225.93 16.68H219.51V15.24H225.13L224.81 15.54C224.81 14.9267 224.717 14.4133 224.53 14C224.357 13.5867 224.097 13.2733 223.75 13.06C223.417 12.8333 222.997 12.72 222.49 12.72C221.93 12.72 221.45 12.8533 221.05 13.12C220.664 13.3733 220.364 13.74 220.15 14.22C219.95 14.6867 219.85 15.2467 219.85 15.9V16.04C219.85 17.1333 220.104 17.9533 220.61 18.5C221.13 19.0333 221.89 19.3 222.89 19.3C223.237 19.3 223.624 19.26 224.05 19.18C224.49 19.0867 224.904 18.9333 225.29 18.72C225.57 18.56 225.817 18.4933 226.03 18.52C226.244 18.5333 226.41 18.6067 226.53 18.74C226.664 18.8733 226.744 19.04 226.77 19.24C226.797 19.4267 226.757 19.62 226.65 19.82C226.557 20.02 226.39 20.1933 226.15 20.34C225.684 20.6333 225.144 20.8533 224.53 21C223.93 21.1333 223.37 21.2 222.85 21.2ZM232.09 21.2C231.384 21.2 230.75 21.0667 230.19 20.8C229.644 20.52 229.21 20.1467 228.89 19.68C228.584 19.2133 228.43 18.6867 228.43 18.1C228.43 17.38 228.617 16.8133 228.99 16.4C229.364 15.9733 229.97 15.6667 230.81 15.48C231.65 15.2933 232.777 15.2 234.19 15.2H235.19V16.64H234.21C233.384 16.64 232.724 16.68 232.23 16.76C231.737 16.84 231.384 16.98 231.17 17.18C230.97 17.3667 230.87 17.6333 230.87 17.98C230.87 18.42 231.024 18.78 231.33 19.06C231.637 19.34 232.064 19.48 232.61 19.48C233.05 19.48 233.437 19.38 233.77 19.18C234.117 18.9667 234.39 18.68 234.59 18.32C234.79 17.96 234.89 17.5467 234.89 17.08V14.78C234.89 14.1133 234.744 13.6333 234.45 13.34C234.157 13.0467 233.664 12.9 232.97 12.9C232.584 12.9 232.164 12.9467 231.71 13.04C231.27 13.1333 230.804 13.2933 230.31 13.52C230.057 13.64 229.83 13.6733 229.63 13.62C229.444 13.5667 229.297 13.46 229.19 13.3C229.084 13.1267 229.03 12.94 229.03 12.74C229.03 12.54 229.084 12.3467 229.19 12.16C229.297 11.96 229.477 11.8133 229.73 11.72C230.344 11.4667 230.93 11.2867 231.49 11.18C232.064 11.0733 232.584 11.02 233.05 11.02C234.01 11.02 234.797 11.1667 235.41 11.46C236.037 11.7533 236.504 12.2 236.81 12.8C237.117 13.3867 237.27 14.1467 237.27 15.08V19.88C237.27 20.2933 237.17 20.6133 236.97 20.84C236.77 21.0533 236.484 21.16 236.11 21.16C235.737 21.16 235.444 21.0533 235.23 20.84C235.03 20.6133 234.93 20.2933 234.93 19.88V18.92H235.09C234.997 19.3867 234.81 19.7933 234.53 20.14C234.264 20.4733 233.924 20.7333 233.51 20.92C233.097 21.1067 232.624 21.2 232.09 21.2ZM244.288 21.2C243.421 21.2 242.694 21.0533 242.108 20.76C241.534 20.4667 241.108 20.04 240.828 19.48C240.548 18.9067 240.408 18.2 240.408 17.36V13.1H239.368C239.048 13.1 238.801 13.02 238.628 12.86C238.454 12.6867 238.368 12.4533 238.368 12.16C238.368 11.8533 238.454 11.62 238.628 11.46C238.801 11.3 239.048 11.22 239.368 11.22H240.408V9.4C240.408 8.98667 240.514 8.67333 240.728 8.46C240.954 8.24667 241.268 8.14 241.668 8.14C242.068 8.14 242.374 8.24667 242.588 8.46C242.801 8.67333 242.908 8.98667 242.908 9.4V11.22H245.028C245.348 11.22 245.594 11.3 245.768 11.46C245.941 11.62 246.028 11.8533 246.028 12.16C246.028 12.4533 245.941 12.6867 245.768 12.86C245.594 13.02 245.348 13.1 245.028 13.1H242.908V17.22C242.908 17.86 243.048 18.34 243.328 18.66C243.608 18.98 244.061 19.14 244.688 19.14C244.914 19.14 245.114 19.12 245.288 19.08C245.461 19.04 245.614 19.0133 245.748 19C245.908 18.9867 246.041 19.04 246.148 19.16C246.254 19.2667 246.308 19.4933 246.308 19.84C246.308 20.1067 246.261 20.3467 246.168 20.56C246.088 20.76 245.934 20.9 245.708 20.98C245.534 21.0333 245.308 21.08 245.028 21.12C244.748 21.1733 244.501 21.2 244.288 21.2ZM248.978 21.16C248.578 21.16 248.271 21.0533 248.058 20.84C247.844 20.6133 247.738 20.2933 247.738 19.88V8C247.738 7.58667 247.844 7.27333 248.058 7.06C248.271 6.84667 248.578 6.74 248.978 6.74C249.378 6.74 249.684 6.84667 249.898 7.06C250.124 7.27333 250.238 7.58667 250.238 8V13.18H249.958C250.251 12.4733 250.704 11.94 251.318 11.58C251.944 11.2067 252.651 11.02 253.438 11.02C254.224 11.02 254.871 11.1667 255.378 11.46C255.884 11.7533 256.264 12.2 256.518 12.8C256.771 13.3867 256.898 14.1333 256.898 15.04V19.88C256.898 20.2933 256.791 20.6133 256.578 20.84C256.364 21.0533 256.058 21.16 255.658 21.16C255.258 21.16 254.944 21.0533 254.718 20.84C254.504 20.6133 254.398 20.2933 254.398 19.88V15.16C254.398 14.4 254.251 13.8467 253.958 13.5C253.678 13.1533 253.238 12.98 252.638 12.98C251.904 12.98 251.318 13.2133 250.878 13.68C250.451 14.1333 250.238 14.74 250.238 15.5V19.88C250.238 20.7333 249.818 21.16 248.978 21.16ZM264.257 21.2C263.15 21.2 262.197 20.9933 261.397 20.58C260.597 20.1667 259.977 19.58 259.537 18.82C259.11 18.06 258.897 17.16 258.897 16.12C258.897 15.1067 259.103 14.22 259.517 13.46C259.943 12.7 260.523 12.1067 261.257 11.68C262.003 11.24 262.85 11.02 263.797 11.02C264.49 11.02 265.11 11.1333 265.657 11.36C266.217 11.5867 266.69 11.9133 267.077 12.34C267.477 12.7667 267.777 13.2867 267.977 13.9C268.19 14.5 268.297 15.18 268.297 15.94C268.297 16.18 268.21 16.3667 268.037 16.5C267.877 16.62 267.643 16.68 267.337 16.68H260.917V15.24H266.537L266.217 15.54C266.217 14.9267 266.123 14.4133 265.937 14C265.763 13.5867 265.503 13.2733 265.157 13.06C264.823 12.8333 264.403 12.72 263.897 12.72C263.337 12.72 262.857 12.8533 262.457 13.12C262.07 13.3733 261.77 13.74 261.557 14.22C261.357 14.6867 261.257 15.2467 261.257 15.9V16.04C261.257 17.1333 261.51 17.9533 262.017 18.5C262.537 19.0333 263.297 19.3 264.297 19.3C264.643 19.3 265.03 19.26 265.457 19.18C265.897 19.0867 266.31 18.9333 266.697 18.72C266.977 18.56 267.223 18.4933 267.437 18.52C267.65 18.5333 267.817 18.6067 267.937 18.74C268.07 18.8733 268.15 19.04 268.177 19.24C268.203 19.4267 268.163 19.62 268.057 19.82C267.963 20.02 267.797 20.1933 267.557 20.34C267.09 20.6333 266.55 20.8533 265.937 21C265.337 21.1333 264.777 21.2 264.257 21.2ZM271.557 21.16C271.143 21.16 270.823 21.0533 270.597 20.84C270.383 20.6133 270.277 20.2933 270.277 19.88V12.32C270.277 11.9067 270.383 11.5933 270.597 11.38C270.81 11.1667 271.11 11.06 271.497 11.06C271.883 11.06 272.183 11.1667 272.397 11.38C272.61 11.5933 272.717 11.9067 272.717 12.32V13.58H272.517C272.703 12.78 273.07 12.1733 273.617 11.76C274.163 11.3467 274.89 11.1 275.797 11.02C276.077 10.9933 276.297 11.0667 276.457 11.24C276.63 11.4 276.73 11.6533 276.757 12C276.783 12.3333 276.703 12.6067 276.517 12.82C276.343 13.02 276.077 13.14 275.717 13.18L275.277 13.22C274.463 13.3 273.85 13.5533 273.437 13.98C273.023 14.3933 272.817 14.98 272.817 15.74V19.88C272.817 20.2933 272.71 20.6133 272.497 20.84C272.283 21.0533 271.97 21.16 271.557 21.16Z" fill="#8FB2F5"/>
<path d="M17.9255 47.126C16.9548 47.126 16.1242 46.9207 15.4335 46.51C14.7428 46.0993 14.2108 45.516 13.8375 44.76C13.4735 44.004 13.2915 43.1033 13.2915 42.058C13.2915 41.274 13.3942 40.574 13.5995 39.958C13.8142 39.3327 14.1175 38.8053 14.5095 38.376C14.9108 37.9373 15.4008 37.6013 15.9795 37.368C16.5582 37.1253 17.2068 37.004 17.9255 37.004C18.5042 37.004 19.0548 37.088 19.5775 37.256C20.1002 37.4147 20.5528 37.6527 20.9355 37.97C21.0568 38.0633 21.1362 38.1707 21.1735 38.292C21.2202 38.404 21.2248 38.516 21.1875 38.628C21.1595 38.7307 21.1035 38.8193 21.0195 38.894C20.9448 38.9593 20.8515 38.992 20.7395 38.992C20.6275 38.992 20.5015 38.9453 20.3615 38.852C20.0255 38.5813 19.6568 38.3807 19.2555 38.25C18.8542 38.1193 18.4202 38.054 17.9535 38.054C17.2162 38.054 16.5908 38.2127 16.0775 38.53C15.5642 38.838 15.1768 39.2907 14.9155 39.888C14.6542 40.4853 14.5235 41.2087 14.5235 42.058C14.5235 42.9073 14.6542 43.6353 14.9155 44.242C15.1768 44.8393 15.5642 45.2967 16.0775 45.614C16.5908 45.922 17.2162 46.076 17.9535 46.076C18.4108 46.076 18.8448 46.0107 19.2555 45.88C19.6662 45.74 20.0442 45.5347 20.3895 45.264C20.5295 45.1707 20.6555 45.1287 20.7675 45.138C20.8795 45.138 20.9728 45.1707 21.0475 45.236C21.1222 45.3013 21.1735 45.3853 21.2015 45.488C21.2388 45.5907 21.2388 45.698 21.2015 45.81C21.1735 45.922 21.1035 46.02 20.9915 46.104C20.5995 46.44 20.1375 46.6967 19.6055 46.874C19.0828 47.042 18.5228 47.126 17.9255 47.126ZM23.4814 47.098C23.2948 47.098 23.1548 47.0467 23.0614 46.944C22.9681 46.8413 22.9214 46.6967 22.9214 46.51V37.606C22.9214 37.4193 22.9681 37.2793 23.0614 37.186C23.1548 37.0833 23.2948 37.032 23.4814 37.032C23.6588 37.032 23.7988 37.0833 23.9014 37.186C24.0041 37.2793 24.0554 37.4193 24.0554 37.606V41.708H23.8734C24.0694 41.1667 24.3868 40.7607 24.8254 40.49C25.2734 40.21 25.7868 40.07 26.3654 40.07C26.9068 40.07 27.3548 40.168 27.7094 40.364C28.0734 40.56 28.3441 40.8587 28.5214 41.26C28.6988 41.652 28.7874 42.1513 28.7874 42.758V46.51C28.7874 46.6967 28.7361 46.8413 28.6334 46.944C28.5401 47.0467 28.4048 47.098 28.2274 47.098C28.0408 47.098 27.8961 47.0467 27.7934 46.944C27.7001 46.8413 27.6534 46.6967 27.6534 46.51V42.828C27.6534 42.1933 27.5274 41.7313 27.2754 41.442C27.0328 41.1433 26.6408 40.994 26.0994 40.994C25.4741 40.994 24.9748 41.19 24.6014 41.582C24.2374 41.9647 24.0554 42.478 24.0554 43.122V46.51C24.0554 46.902 23.8641 47.098 23.4814 47.098ZM33.7065 47.126C33.0438 47.126 32.4698 46.9813 31.9845 46.692C31.4991 46.4027 31.1211 45.9967 30.8505 45.474C30.5891 44.942 30.4585 44.3167 30.4585 43.598C30.4585 43.0567 30.5331 42.5713 30.6825 42.142C30.8318 41.7033 31.0511 41.33 31.3405 41.022C31.6298 40.714 31.9705 40.4807 32.3625 40.322C32.7638 40.154 33.2118 40.07 33.7065 40.07C34.3691 40.07 34.9431 40.2147 35.4285 40.504C35.9138 40.7933 36.2871 41.204 36.5485 41.736C36.8191 42.2587 36.9545 42.8793 36.9545 43.598C36.9545 44.1393 36.8798 44.6247 36.7305 45.054C36.5811 45.4833 36.3618 45.8567 36.0725 46.174C35.7831 46.482 35.4378 46.72 35.0365 46.888C34.6445 47.0467 34.2011 47.126 33.7065 47.126ZM33.7065 46.216C34.1265 46.216 34.4951 46.1133 34.8125 45.908C35.1298 45.7027 35.3725 45.404 35.5405 45.012C35.7178 44.62 35.8065 44.1487 35.8065 43.598C35.8065 42.7487 35.6151 42.1 35.2325 41.652C34.8591 41.204 34.3505 40.98 33.7065 40.98C33.2771 40.98 32.9038 41.0827 32.5865 41.288C32.2785 41.484 32.0358 41.778 31.8585 42.17C31.6905 42.5527 31.6065 43.0287 31.6065 43.598C31.6065 44.438 31.7978 45.0867 32.1805 45.544C32.5631 45.992 33.0718 46.216 33.7065 46.216ZM41.4858 47.126C40.8231 47.126 40.2491 46.9813 39.7638 46.692C39.2784 46.4027 38.9004 45.9967 38.6298 45.474C38.3684 44.942 38.2378 44.3167 38.2378 43.598C38.2378 43.0567 38.3124 42.5713 38.4618 42.142C38.6111 41.7033 38.8304 41.33 39.1198 41.022C39.4091 40.714 39.7498 40.4807 40.1418 40.322C40.5431 40.154 40.9911 40.07 41.4858 40.07C42.1484 40.07 42.7224 40.2147 43.2078 40.504C43.6931 40.7933 44.0664 41.204 44.3278 41.736C44.5984 42.2587 44.7338 42.8793 44.7338 43.598C44.7338 44.1393 44.6591 44.6247 44.5098 45.054C44.3604 45.4833 44.1411 45.8567 43.8518 46.174C43.5624 46.482 43.2171 46.72 42.8158 46.888C42.4238 47.0467 41.9804 47.126 41.4858 47.126ZM41.4858 46.216C41.9058 46.216 42.2744 46.1133 42.5918 45.908C42.9091 45.7027 43.1518 45.404 43.3198 45.012C43.4971 44.62 43.5858 44.1487 43.5858 43.598C43.5858 42.7487 43.3944 42.1 43.0118 41.652C42.6384 41.204 42.1298 40.98 41.4858 40.98C41.0564 40.98 40.6831 41.0827 40.3658 41.288C40.0578 41.484 39.8151 41.778 39.6378 42.17C39.4698 42.5527 39.3858 43.0287 39.3858 43.598C39.3858 44.438 39.5771 45.0867 39.9598 45.544C40.3424 45.992 40.8511 46.216 41.4858 46.216ZM48.733 47.126C48.313 47.126 47.8884 47.0747 47.459 46.972C47.039 46.8693 46.647 46.692 46.283 46.44C46.1897 46.3747 46.1244 46.3 46.087 46.216C46.0497 46.1227 46.0357 46.034 46.045 45.95C46.0637 45.8567 46.101 45.7773 46.157 45.712C46.2224 45.6467 46.297 45.6093 46.381 45.6C46.4744 45.5813 46.577 45.6 46.689 45.656C47.053 45.88 47.403 46.0387 47.739 46.132C48.0844 46.216 48.425 46.258 48.761 46.258C49.293 46.258 49.6944 46.16 49.965 45.964C50.2357 45.768 50.371 45.502 50.371 45.166C50.371 44.9047 50.2824 44.6993 50.105 44.55C49.9277 44.3913 49.6477 44.27 49.265 44.186L47.991 43.906C47.403 43.7847 46.9644 43.5747 46.675 43.276C46.395 42.9773 46.255 42.59 46.255 42.114C46.255 41.694 46.3624 41.3347 46.577 41.036C46.801 40.728 47.1137 40.49 47.515 40.322C47.9164 40.154 48.383 40.07 48.915 40.07C49.3257 40.07 49.713 40.126 50.077 40.238C50.4504 40.3407 50.7864 40.5087 51.085 40.742C51.1784 40.8073 51.239 40.8867 51.267 40.98C51.3044 41.064 51.309 41.1527 51.281 41.246C51.2624 41.33 51.2204 41.4047 51.155 41.47C51.0897 41.526 51.0104 41.5587 50.917 41.568C50.8237 41.5773 50.7257 41.5493 50.623 41.484C50.343 41.2973 50.0584 41.162 49.769 41.078C49.4797 40.9847 49.195 40.938 48.915 40.938C48.3924 40.938 47.9957 41.0407 47.725 41.246C47.4544 41.4513 47.319 41.722 47.319 42.058C47.319 42.3193 47.403 42.534 47.571 42.702C47.739 42.87 48.0004 42.9913 48.355 43.066L49.629 43.332C50.2357 43.4627 50.6884 43.6727 50.987 43.962C51.295 44.242 51.449 44.6247 51.449 45.11C51.449 45.726 51.2017 46.216 50.707 46.58C50.2124 46.944 49.5544 47.126 48.733 47.126ZM56.2433 47.126C55.5246 47.126 54.9039 46.986 54.3813 46.706C53.8679 46.4167 53.4666 46.0107 53.1773 45.488C52.8973 44.9653 52.7573 44.34 52.7573 43.612C52.7573 42.9027 52.8973 42.2867 53.1773 41.764C53.4573 41.232 53.8399 40.8167 54.3253 40.518C54.8199 40.2193 55.3893 40.07 56.0333 40.07C56.4906 40.07 56.9013 40.1493 57.2653 40.308C57.6293 40.4573 57.9373 40.6767 58.1893 40.966C58.4506 41.2553 58.6466 41.6053 58.7773 42.016C58.9173 42.4267 58.9873 42.8887 58.9873 43.402C58.9873 43.5513 58.9453 43.6633 58.8613 43.738C58.7773 43.8033 58.6559 43.836 58.4973 43.836H53.6253V43.094H58.2313L58.0073 43.276C58.0073 42.772 57.9326 42.3473 57.7833 42.002C57.6339 41.6473 57.4146 41.3767 57.1253 41.19C56.8453 41.0033 56.4906 40.91 56.0613 40.91C55.5853 40.91 55.1793 41.022 54.8433 41.246C54.5166 41.4607 54.2693 41.764 54.1013 42.156C53.9333 42.5387 53.8493 42.9867 53.8493 43.5V43.584C53.8493 44.4427 54.0546 45.096 54.4653 45.544C54.8853 45.992 55.4779 46.216 56.2433 46.216C56.5606 46.216 56.8733 46.174 57.1813 46.09C57.4986 46.006 57.8066 45.866 58.1053 45.67C58.2359 45.586 58.3526 45.5487 58.4553 45.558C58.5673 45.558 58.6559 45.5907 58.7213 45.656C58.7866 45.712 58.8286 45.7867 58.8473 45.88C58.8753 45.964 58.8659 46.0573 58.8193 46.16C58.7819 46.2627 58.7026 46.3513 58.5813 46.426C58.2733 46.65 57.9093 46.8227 57.4893 46.944C57.0693 47.0653 56.6539 47.126 56.2433 47.126ZM66.3798 47.126C65.9132 47.126 65.4932 47.0373 65.1198 46.86C64.7558 46.6733 64.4665 46.4213 64.2518 46.104C64.0372 45.7867 63.9298 45.432 63.9298 45.04C63.9298 44.536 64.0558 44.1393 64.3078 43.85C64.5692 43.5607 64.9938 43.3553 65.5818 43.234C66.1792 43.1127 66.9912 43.052 68.0178 43.052H68.6478V43.794H68.0318C67.2758 43.794 66.6785 43.8313 66.2398 43.906C65.8105 43.9713 65.5072 44.088 65.3298 44.256C65.1618 44.424 65.0778 44.662 65.0778 44.97C65.0778 45.3527 65.2085 45.6653 65.4698 45.908C65.7405 46.1507 66.1045 46.272 66.5618 46.272C66.9352 46.272 67.2618 46.1833 67.5418 46.006C67.8312 45.8287 68.0552 45.586 68.2138 45.278C68.3818 44.97 68.4658 44.6153 68.4658 44.214V42.618C68.4658 42.0393 68.3492 41.624 68.1158 41.372C67.8825 41.1107 67.4998 40.98 66.9678 40.98C66.6412 40.98 66.3145 41.022 65.9878 41.106C65.6612 41.19 65.3158 41.3253 64.9518 41.512C64.8212 41.5773 64.7092 41.6007 64.6158 41.582C64.5225 41.554 64.4478 41.5027 64.3918 41.428C64.3358 41.3533 64.3032 41.2693 64.2938 41.176C64.2845 41.0733 64.3032 40.9753 64.3498 40.882C64.4058 40.7887 64.4898 40.714 64.6018 40.658C65.0125 40.4527 65.4185 40.3033 65.8198 40.21C66.2212 40.1167 66.6038 40.07 66.9678 40.07C67.5558 40.07 68.0412 40.168 68.4238 40.364C68.8065 40.5507 69.0912 40.84 69.2778 41.232C69.4645 41.6147 69.5578 42.1093 69.5578 42.716V46.51C69.5578 46.6967 69.5112 46.8413 69.4178 46.944C69.3338 47.0467 69.2078 47.098 69.0398 47.098C68.8625 47.098 68.7272 47.0467 68.6338 46.944C68.5405 46.8413 68.4938 46.6967 68.4938 46.51V45.418H68.6198C68.5452 45.7727 68.4005 46.076 68.1858 46.328C67.9805 46.58 67.7238 46.776 67.4158 46.916C67.1078 47.056 66.7625 47.126 66.3798 47.126ZM77.343 47.126C76.671 47.126 76.1577 46.9207 75.803 46.51C75.4484 46.0993 75.271 45.5113 75.271 44.746V37.606C75.271 37.4193 75.3177 37.2793 75.411 37.186C75.5044 37.0833 75.6444 37.032 75.831 37.032C76.0084 37.032 76.1484 37.0833 76.251 37.186C76.3537 37.2793 76.405 37.4193 76.405 37.606V44.662C76.405 45.166 76.503 45.544 76.699 45.796C76.9044 46.0387 77.203 46.16 77.595 46.16C77.679 46.16 77.7537 46.1553 77.819 46.146C77.8844 46.1367 77.9497 46.132 78.015 46.132C78.1177 46.1227 78.1877 46.146 78.225 46.202C78.2717 46.258 78.295 46.37 78.295 46.538C78.295 46.706 78.2577 46.832 78.183 46.916C78.1084 47 77.987 47.056 77.819 47.084C77.7444 47.0933 77.665 47.1027 77.581 47.112C77.497 47.1213 77.4177 47.126 77.343 47.126ZM82.1733 47.126C81.5106 47.126 80.9366 46.9813 80.4513 46.692C79.9659 46.4027 79.5879 45.9967 79.3173 45.474C79.0559 44.942 78.9253 44.3167 78.9253 43.598C78.9253 43.0567 78.9999 42.5713 79.1493 42.142C79.2986 41.7033 79.5179 41.33 79.8073 41.022C80.0966 40.714 80.4373 40.4807 80.8293 40.322C81.2306 40.154 81.6786 40.07 82.1733 40.07C82.8359 40.07 83.4099 40.2147 83.8953 40.504C84.3806 40.7933 84.7539 41.204 85.0153 41.736C85.2859 42.2587 85.4213 42.8793 85.4213 43.598C85.4213 44.1393 85.3466 44.6247 85.1973 45.054C85.0479 45.4833 84.8286 45.8567 84.5393 46.174C84.2499 46.482 83.9046 46.72 83.5033 46.888C83.1113 47.0467 82.6679 47.126 82.1733 47.126ZM82.1733 46.216C82.5933 46.216 82.9619 46.1133 83.2793 45.908C83.5966 45.7027 83.8393 45.404 84.0073 45.012C84.1846 44.62 84.2733 44.1487 84.2733 43.598C84.2733 42.7487 84.0819 42.1 83.6993 41.652C83.3259 41.204 82.8173 40.98 82.1733 40.98C81.7439 40.98 81.3706 41.0827 81.0533 41.288C80.7453 41.484 80.5026 41.778 80.3253 42.17C80.1573 42.5527 80.0733 43.0287 80.0733 43.598C80.0733 44.438 80.2646 45.0867 80.6473 45.544C81.0299 45.992 81.5386 46.216 82.1733 46.216ZM90.0085 47.126C89.3272 47.126 88.7392 46.9767 88.2445 46.678C87.7499 46.3793 87.3672 45.964 87.0965 45.432C86.8352 44.8907 86.7045 44.2653 86.7045 43.556C86.7045 43.0147 86.7792 42.5293 86.9285 42.1C87.0779 41.6707 87.2972 41.3067 87.5865 41.008C87.8759 40.7 88.2212 40.4667 88.6225 40.308C89.0332 40.1493 89.4952 40.07 90.0085 40.07C90.3445 40.07 90.6945 40.1213 91.0585 40.224C91.4225 40.3267 91.7539 40.504 92.0525 40.756C92.1459 40.8213 92.2065 40.9007 92.2345 40.994C92.2625 41.0873 92.2625 41.1807 92.2345 41.274C92.2065 41.358 92.1599 41.4327 92.0945 41.498C92.0292 41.554 91.9452 41.5867 91.8425 41.596C91.7492 41.6053 91.6512 41.5727 91.5485 41.498C91.3059 41.3113 91.0585 41.1807 90.8065 41.106C90.5545 41.0313 90.3119 40.994 90.0785 40.994C89.7145 40.994 89.3972 41.0547 89.1265 41.176C88.8559 41.288 88.6272 41.4513 88.4405 41.666C88.2539 41.8807 88.1092 42.1467 88.0065 42.464C87.9132 42.7813 87.8665 43.15 87.8665 43.57C87.8665 44.382 88.0579 45.026 88.4405 45.502C88.8232 45.9687 89.3692 46.202 90.0785 46.202C90.3119 46.202 90.5499 46.1647 90.7925 46.09C91.0445 46.0153 91.2965 45.8847 91.5485 45.698C91.6512 45.6233 91.7492 45.5907 91.8425 45.6C91.9359 45.6093 92.0152 45.6467 92.0805 45.712C92.1459 45.768 92.1879 45.8427 92.2065 45.936C92.2345 46.0293 92.2345 46.1227 92.2065 46.216C92.1785 46.3 92.1179 46.3747 92.0245 46.44C91.7259 46.6827 91.3992 46.86 91.0445 46.972C90.6899 47.0747 90.3445 47.126 90.0085 47.126ZM95.6923 47.126C95.2257 47.126 94.8057 47.0373 94.4323 46.86C94.0683 46.6733 93.779 46.4213 93.5643 46.104C93.3497 45.7867 93.2423 45.432 93.2423 45.04C93.2423 44.536 93.3683 44.1393 93.6203 43.85C93.8817 43.5607 94.3063 43.3553 94.8943 43.234C95.4917 43.1127 96.3037 43.052 97.3303 43.052H97.9603V43.794H97.3443C96.5883 43.794 95.991 43.8313 95.5523 43.906C95.123 43.9713 94.8197 44.088 94.6423 44.256C94.4743 44.424 94.3903 44.662 94.3903 44.97C94.3903 45.3527 94.521 45.6653 94.7823 45.908C95.053 46.1507 95.417 46.272 95.8743 46.272C96.2477 46.272 96.5743 46.1833 96.8543 46.006C97.1437 45.8287 97.3677 45.586 97.5263 45.278C97.6943 44.97 97.7783 44.6153 97.7783 44.214V42.618C97.7783 42.0393 97.6617 41.624 97.4283 41.372C97.195 41.1107 96.8123 40.98 96.2803 40.98C95.9537 40.98 95.627 41.022 95.3003 41.106C94.9737 41.19 94.6283 41.3253 94.2643 41.512C94.1337 41.5773 94.0217 41.6007 93.9283 41.582C93.835 41.554 93.7603 41.5027 93.7043 41.428C93.6483 41.3533 93.6157 41.2693 93.6063 41.176C93.597 41.0733 93.6157 40.9753 93.6623 40.882C93.7183 40.7887 93.8023 40.714 93.9143 40.658C94.325 40.4527 94.731 40.3033 95.1323 40.21C95.5337 40.1167 95.9163 40.07 96.2803 40.07C96.8683 40.07 97.3537 40.168 97.7363 40.364C98.119 40.5507 98.4037 40.84 98.5903 41.232C98.777 41.6147 98.8703 42.1093 98.8703 42.716V46.51C98.8703 46.6967 98.8237 46.8413 98.7303 46.944C98.6463 47.0467 98.5203 47.098 98.3523 47.098C98.175 47.098 98.0397 47.0467 97.9463 46.944C97.853 46.8413 97.8063 46.6967 97.8063 46.51V45.418H97.9323C97.8577 45.7727 97.713 46.076 97.4983 46.328C97.293 46.58 97.0363 46.776 96.7283 46.916C96.4203 47.056 96.075 47.126 95.6923 47.126ZM103.704 47.126C103.172 47.126 102.724 47.0327 102.36 46.846C102.005 46.65 101.739 46.37 101.562 46.006C101.385 45.6327 101.296 45.18 101.296 44.648V41.078H100.358C100.199 41.078 100.078 41.0407 99.9942 40.966C99.9102 40.882 99.8682 40.77 99.8682 40.63C99.8682 40.49 99.9102 40.3827 99.9942 40.308C100.078 40.2333 100.199 40.196 100.358 40.196H101.296V38.586C101.296 38.3993 101.347 38.2593 101.45 38.166C101.553 38.0633 101.693 38.012 101.87 38.012C102.047 38.012 102.183 38.0633 102.276 38.166C102.379 38.2593 102.43 38.3993 102.43 38.586V40.196H104.194C104.353 40.196 104.474 40.2333 104.558 40.308C104.642 40.3827 104.684 40.49 104.684 40.63C104.684 40.77 104.642 40.882 104.558 40.966C104.474 41.0407 104.353 41.078 104.194 41.078H102.43V44.536C102.43 45.068 102.542 45.474 102.766 45.754C102.99 46.0247 103.354 46.16 103.858 46.16C104.035 46.16 104.185 46.1413 104.306 46.104C104.437 46.0667 104.544 46.048 104.628 46.048C104.712 46.0387 104.782 46.0667 104.838 46.132C104.894 46.1973 104.922 46.3093 104.922 46.468C104.922 46.58 104.899 46.6827 104.852 46.776C104.815 46.8693 104.745 46.9347 104.642 46.972C104.53 47.0093 104.381 47.042 104.194 47.07C104.017 47.1073 103.853 47.126 103.704 47.126ZM106.511 47.07C106.324 47.07 106.184 47.0187 106.091 46.916C105.997 46.804 105.951 46.65 105.951 46.454V40.728C105.951 40.532 105.997 40.3827 106.091 40.28C106.184 40.1773 106.324 40.126 106.511 40.126C106.688 40.126 106.828 40.1773 106.931 40.28C107.033 40.3827 107.085 40.532 107.085 40.728V46.454C107.085 46.65 107.033 46.804 106.931 46.916C106.837 47.0187 106.697 47.07 106.511 47.07ZM106.511 38.558C106.277 38.558 106.095 38.4973 105.965 38.376C105.834 38.2453 105.769 38.0727 105.769 37.858C105.769 37.634 105.834 37.466 105.965 37.354C106.095 37.2327 106.277 37.172 106.511 37.172C106.753 37.172 106.935 37.2327 107.057 37.354C107.187 37.466 107.253 37.634 107.253 37.858C107.253 38.0727 107.187 38.2453 107.057 38.376C106.935 38.4973 106.753 38.558 106.511 38.558ZM112.033 47.126C111.37 47.126 110.796 46.9813 110.311 46.692C109.825 46.4027 109.447 45.9967 109.177 45.474C108.915 44.942 108.785 44.3167 108.785 43.598C108.785 43.0567 108.859 42.5713 109.009 42.142C109.158 41.7033 109.377 41.33 109.667 41.022C109.956 40.714 110.297 40.4807 110.689 40.322C111.09 40.154 111.538 40.07 112.033 40.07C112.695 40.07 113.269 40.2147 113.755 40.504C114.24 40.7933 114.613 41.204 114.875 41.736C115.145 42.2587 115.281 42.8793 115.281 43.598C115.281 44.1393 115.206 44.6247 115.057 45.054C114.907 45.4833 114.688 45.8567 114.399 46.174C114.109 46.482 113.764 46.72 113.363 46.888C112.971 47.0467 112.527 47.126 112.033 47.126ZM112.033 46.216C112.453 46.216 112.821 46.1133 113.139 45.908C113.456 45.7027 113.699 45.404 113.867 45.012C114.044 44.62 114.133 44.1487 114.133 43.598C114.133 42.7487 113.941 42.1 113.559 41.652C113.185 41.204 112.677 40.98 112.033 40.98C111.603 40.98 111.23 41.0827 110.913 41.288C110.605 41.484 110.362 41.778 110.185 42.17C110.017 42.5527 109.933 43.0287 109.933 43.598C109.933 44.438 110.124 45.0867 110.507 45.544C110.889 45.992 111.398 46.216 112.033 46.216ZM117.544 47.098C117.357 47.098 117.217 47.0467 117.124 46.944C117.031 46.8413 116.984 46.6967 116.984 46.51V40.672C116.984 40.4853 117.031 40.3453 117.124 40.252C117.217 40.1493 117.353 40.098 117.53 40.098C117.707 40.098 117.843 40.1493 117.936 40.252C118.039 40.3453 118.09 40.4853 118.09 40.672V41.876L117.936 41.708C118.132 41.1667 118.449 40.7607 118.888 40.49C119.336 40.21 119.849 40.07 120.428 40.07C120.969 40.07 121.417 40.168 121.772 40.364C122.136 40.56 122.407 40.8587 122.584 41.26C122.761 41.652 122.85 42.1513 122.85 42.758V46.51C122.85 46.6967 122.799 46.8413 122.696 46.944C122.603 47.0467 122.467 47.098 122.29 47.098C122.103 47.098 121.959 47.0467 121.856 46.944C121.763 46.8413 121.716 46.6967 121.716 46.51V42.828C121.716 42.1933 121.59 41.7313 121.338 41.442C121.095 41.1433 120.703 40.994 120.162 40.994C119.537 40.994 119.037 41.19 118.664 41.582C118.3 41.9647 118.118 42.478 118.118 43.122V46.51C118.118 46.902 117.927 47.098 117.544 47.098ZM131.28 47.126C130.748 47.126 130.3 47.0327 129.936 46.846C129.582 46.65 129.316 46.37 129.138 46.006C128.961 45.6327 128.872 45.18 128.872 44.648V41.078H127.934C127.776 41.078 127.654 41.0407 127.57 40.966C127.486 40.882 127.444 40.77 127.444 40.63C127.444 40.49 127.486 40.3827 127.57 40.308C127.654 40.2333 127.776 40.196 127.934 40.196H128.872V38.586C128.872 38.3993 128.924 38.2593 129.026 38.166C129.129 38.0633 129.269 38.012 129.446 38.012C129.624 38.012 129.759 38.0633 129.852 38.166C129.955 38.2593 130.006 38.3993 130.006 38.586V40.196H131.77C131.929 40.196 132.05 40.2333 132.134 40.308C132.218 40.3827 132.26 40.49 132.26 40.63C132.26 40.77 132.218 40.882 132.134 40.966C132.05 41.0407 131.929 41.078 131.77 41.078H130.006V44.536C130.006 45.068 130.118 45.474 130.342 45.754C130.566 46.0247 130.93 46.16 131.434 46.16C131.612 46.16 131.761 46.1413 131.882 46.104C132.013 46.0667 132.12 46.048 132.204 46.048C132.288 46.0387 132.358 46.0667 132.414 46.132C132.47 46.1973 132.498 46.3093 132.498 46.468C132.498 46.58 132.475 46.6827 132.428 46.776C132.391 46.8693 132.321 46.9347 132.218 46.972C132.106 47.0093 131.957 47.042 131.77 47.07C131.593 47.1073 131.43 47.126 131.28 47.126ZM136.205 47.126C135.542 47.126 134.968 46.9813 134.483 46.692C133.997 46.4027 133.619 45.9967 133.349 45.474C133.087 44.942 132.957 44.3167 132.957 43.598C132.957 43.0567 133.031 42.5713 133.181 42.142C133.33 41.7033 133.549 41.33 133.839 41.022C134.128 40.714 134.469 40.4807 134.861 40.322C135.262 40.154 135.71 40.07 136.205 40.07C136.867 40.07 137.441 40.2147 137.927 40.504C138.412 40.7933 138.785 41.204 139.047 41.736C139.317 42.2587 139.453 42.8793 139.453 43.598C139.453 44.1393 139.378 44.6247 139.229 45.054C139.079 45.4833 138.86 45.8567 138.571 46.174C138.281 46.482 137.936 46.72 137.535 46.888C137.143 47.0467 136.699 47.126 136.205 47.126ZM136.205 46.216C136.625 46.216 136.993 46.1133 137.311 45.908C137.628 45.7027 137.871 45.404 138.039 45.012C138.216 44.62 138.305 44.1487 138.305 43.598C138.305 42.7487 138.113 42.1 137.731 41.652C137.357 41.204 136.849 40.98 136.205 40.98C135.775 40.98 135.402 41.0827 135.085 41.288C134.777 41.484 134.534 41.778 134.357 42.17C134.189 42.5527 134.105 43.0287 134.105 43.598C134.105 44.438 134.296 45.0867 134.679 45.544C135.061 45.992 135.57 46.216 136.205 46.216ZM147.061 47.126C146.641 47.126 146.217 47.0747 145.787 46.972C145.367 46.8693 144.975 46.692 144.611 46.44C144.518 46.3747 144.453 46.3 144.415 46.216C144.378 46.1227 144.364 46.034 144.373 45.95C144.392 45.8567 144.429 45.7773 144.485 45.712C144.551 45.6467 144.625 45.6093 144.709 45.6C144.803 45.5813 144.905 45.6 145.017 45.656C145.381 45.88 145.731 46.0387 146.067 46.132C146.413 46.216 146.753 46.258 147.089 46.258C147.621 46.258 148.023 46.16 148.293 45.964C148.564 45.768 148.699 45.502 148.699 45.166C148.699 44.9047 148.611 44.6993 148.433 44.55C148.256 44.3913 147.976 44.27 147.593 44.186L146.319 43.906C145.731 43.7847 145.293 43.5747 145.003 43.276C144.723 42.9773 144.583 42.59 144.583 42.114C144.583 41.694 144.691 41.3347 144.905 41.036C145.129 40.728 145.442 40.49 145.843 40.322C146.245 40.154 146.711 40.07 147.243 40.07C147.654 40.07 148.041 40.126 148.405 40.238C148.779 40.3407 149.115 40.5087 149.413 40.742C149.507 40.8073 149.567 40.8867 149.595 40.98C149.633 41.064 149.637 41.1527 149.609 41.246C149.591 41.33 149.549 41.4047 149.483 41.47C149.418 41.526 149.339 41.5587 149.245 41.568C149.152 41.5773 149.054 41.5493 148.951 41.484C148.671 41.2973 148.387 41.162 148.097 41.078C147.808 40.9847 147.523 40.938 147.243 40.938C146.721 40.938 146.324 41.0407 146.053 41.246C145.783 41.4513 145.647 41.722 145.647 42.058C145.647 42.3193 145.731 42.534 145.899 42.702C146.067 42.87 146.329 42.9913 146.683 43.066L147.957 43.332C148.564 43.4627 149.017 43.6727 149.315 43.962C149.623 44.242 149.777 44.6247 149.777 45.11C149.777 45.726 149.53 46.216 149.035 46.58C148.541 46.944 147.883 47.126 147.061 47.126ZM154.571 47.126C153.853 47.126 153.232 46.986 152.709 46.706C152.196 46.4167 151.795 46.0107 151.505 45.488C151.225 44.9653 151.085 44.34 151.085 43.612C151.085 42.9027 151.225 42.2867 151.505 41.764C151.785 41.232 152.168 40.8167 152.653 40.518C153.148 40.2193 153.717 40.07 154.361 40.07C154.819 40.07 155.229 40.1493 155.593 40.308C155.957 40.4573 156.265 40.6767 156.517 40.966C156.779 41.2553 156.975 41.6053 157.105 42.016C157.245 42.4267 157.315 42.8887 157.315 43.402C157.315 43.5513 157.273 43.6633 157.189 43.738C157.105 43.8033 156.984 43.836 156.825 43.836H151.953V43.094H156.559L156.335 43.276C156.335 42.772 156.261 42.3473 156.111 42.002C155.962 41.6473 155.743 41.3767 155.453 41.19C155.173 41.0033 154.819 40.91 154.389 40.91C153.913 40.91 153.507 41.022 153.171 41.246C152.845 41.4607 152.597 41.764 152.429 42.156C152.261 42.5387 152.177 42.9867 152.177 43.5V43.584C152.177 44.4427 152.383 45.096 152.793 45.544C153.213 45.992 153.806 46.216 154.571 46.216C154.889 46.216 155.201 46.174 155.509 46.09C155.827 46.006 156.135 45.866 156.433 45.67C156.564 45.586 156.681 45.5487 156.783 45.558C156.895 45.558 156.984 45.5907 157.049 45.656C157.115 45.712 157.157 45.7867 157.175 45.88C157.203 45.964 157.194 46.0573 157.147 46.16C157.11 46.2627 157.031 46.3513 156.909 46.426C156.601 46.65 156.237 46.8227 155.817 46.944C155.397 47.0653 154.982 47.126 154.571 47.126ZM162.023 47.126C161.304 47.126 160.683 46.986 160.161 46.706C159.647 46.4167 159.246 46.0107 158.957 45.488C158.677 44.9653 158.537 44.34 158.537 43.612C158.537 42.9027 158.677 42.2867 158.957 41.764C159.237 41.232 159.619 40.8167 160.105 40.518C160.599 40.2193 161.169 40.07 161.813 40.07C162.27 40.07 162.681 40.1493 163.045 40.308C163.409 40.4573 163.717 40.6767 163.969 40.966C164.23 41.2553 164.426 41.6053 164.557 42.016C164.697 42.4267 164.767 42.8887 164.767 43.402C164.767 43.5513 164.725 43.6633 164.641 43.738C164.557 43.8033 164.435 43.836 164.277 43.836H159.405V43.094H164.011L163.787 43.276C163.787 42.772 163.712 42.3473 163.563 42.002C163.413 41.6473 163.194 41.3767 162.905 41.19C162.625 41.0033 162.27 40.91 161.841 40.91C161.365 40.91 160.959 41.022 160.623 41.246C160.296 41.4607 160.049 41.764 159.881 42.156C159.713 42.5387 159.629 42.9867 159.629 43.5V43.584C159.629 44.4427 159.834 45.096 160.245 45.544C160.665 45.992 161.257 46.216 162.023 46.216C162.34 46.216 162.653 46.174 162.961 46.09C163.278 46.006 163.586 45.866 163.885 45.67C164.015 45.586 164.132 45.5487 164.235 45.558C164.347 45.558 164.435 45.5907 164.501 45.656C164.566 45.712 164.608 45.7867 164.627 45.88C164.655 45.964 164.645 46.0573 164.599 46.16C164.561 46.2627 164.482 46.3513 164.361 46.426C164.053 46.65 163.689 46.8227 163.269 46.944C162.849 47.0653 162.433 47.126 162.023 47.126ZM172.747 47.126C172.215 47.126 171.767 47.0327 171.403 46.846C171.048 46.65 170.782 46.37 170.605 46.006C170.428 45.6327 170.339 45.18 170.339 44.648V41.078H169.401C169.242 41.078 169.121 41.0407 169.037 40.966C168.953 40.882 168.911 40.77 168.911 40.63C168.911 40.49 168.953 40.3827 169.037 40.308C169.121 40.2333 169.242 40.196 169.401 40.196H170.339V38.586C170.339 38.3993 170.39 38.2593 170.493 38.166C170.596 38.0633 170.736 38.012 170.913 38.012C171.09 38.012 171.226 38.0633 171.319 38.166C171.422 38.2593 171.473 38.3993 171.473 38.586V40.196H173.237C173.396 40.196 173.517 40.2333 173.601 40.308C173.685 40.3827 173.727 40.49 173.727 40.63C173.727 40.77 173.685 40.882 173.601 40.966C173.517 41.0407 173.396 41.078 173.237 41.078H171.473V44.536C171.473 45.068 171.585 45.474 171.809 45.754C172.033 46.0247 172.397 46.16 172.901 46.16C173.078 46.16 173.228 46.1413 173.349 46.104C173.48 46.0667 173.587 46.048 173.671 46.048C173.755 46.0387 173.825 46.0667 173.881 46.132C173.937 46.1973 173.965 46.3093 173.965 46.468C173.965 46.58 173.942 46.6827 173.895 46.776C173.858 46.8693 173.788 46.9347 173.685 46.972C173.573 47.0093 173.424 47.042 173.237 47.07C173.06 47.1073 172.896 47.126 172.747 47.126ZM175.554 47.098C175.367 47.098 175.227 47.0467 175.134 46.944C175.04 46.8413 174.994 46.6967 174.994 46.51V37.606C174.994 37.4193 175.04 37.2793 175.134 37.186C175.227 37.0833 175.367 37.032 175.554 37.032C175.731 37.032 175.871 37.0833 175.974 37.186C176.076 37.2793 176.128 37.4193 176.128 37.606V41.708H175.946C176.142 41.1667 176.459 40.7607 176.898 40.49C177.346 40.21 177.859 40.07 178.438 40.07C178.979 40.07 179.427 40.168 179.782 40.364C180.146 40.56 180.416 40.8587 180.594 41.26C180.771 41.652 180.86 42.1513 180.86 42.758V46.51C180.86 46.6967 180.808 46.8413 180.706 46.944C180.612 47.0467 180.477 47.098 180.3 47.098C180.113 47.098 179.968 47.0467 179.866 46.944C179.772 46.8413 179.726 46.6967 179.726 46.51V42.828C179.726 42.1933 179.6 41.7313 179.348 41.442C179.105 41.1433 178.713 40.994 178.172 40.994C177.546 40.994 177.047 41.19 176.674 41.582C176.31 41.9647 176.128 42.478 176.128 43.122V46.51C176.128 46.902 175.936 47.098 175.554 47.098ZM186.017 47.126C185.298 47.126 184.677 46.986 184.155 46.706C183.641 46.4167 183.24 46.0107 182.951 45.488C182.671 44.9653 182.531 44.34 182.531 43.612C182.531 42.9027 182.671 42.2867 182.951 41.764C183.231 41.232 183.613 40.8167 184.099 40.518C184.593 40.2193 185.163 40.07 185.807 40.07C186.264 40.07 186.675 40.1493 187.039 40.308C187.403 40.4573 187.711 40.6767 187.963 40.966C188.224 41.2553 188.42 41.6053 188.551 42.016C188.691 42.4267 188.761 42.8887 188.761 43.402C188.761 43.5513 188.719 43.6633 188.635 43.738C188.551 43.8033 188.429 43.836 188.271 43.836H183.399V43.094H188.005L187.781 43.276C187.781 42.772 187.706 42.3473 187.557 42.002C187.407 41.6473 187.188 41.3767 186.899 41.19C186.619 41.0033 186.264 40.91 185.835 40.91C185.359 40.91 184.953 41.022 184.617 41.246C184.29 41.4607 184.043 41.764 183.875 42.156C183.707 42.5387 183.623 42.9867 183.623 43.5V43.584C183.623 44.4427 183.828 45.096 184.239 45.544C184.659 45.992 185.251 46.216 186.017 46.216C186.334 46.216 186.647 46.174 186.955 46.09C187.272 46.006 187.58 45.866 187.879 45.67C188.009 45.586 188.126 45.5487 188.229 45.558C188.341 45.558 188.429 45.5907 188.495 45.656C188.56 45.712 188.602 45.7867 188.621 45.88C188.649 45.964 188.639 46.0573 188.593 46.16C188.555 46.2627 188.476 46.3513 188.355 46.426C188.047 46.65 187.683 46.8227 187.263 46.944C186.843 47.0653 186.427 47.126 186.017 47.126ZM196.363 47.098C196.205 47.098 196.065 47.056 195.943 46.972C195.822 46.888 195.724 46.7527 195.649 46.566L193.563 40.896C193.507 40.7373 193.489 40.5973 193.507 40.476C193.535 40.3547 193.596 40.2613 193.689 40.196C193.783 40.1307 193.899 40.098 194.039 40.098C194.179 40.098 194.291 40.1307 194.375 40.196C194.469 40.2613 194.543 40.3827 194.599 40.56L196.559 46.16H196.223L198.239 40.56C198.305 40.392 198.384 40.2753 198.477 40.21C198.58 40.1353 198.711 40.098 198.869 40.098C199.019 40.098 199.145 40.1353 199.247 40.21C199.35 40.2847 199.429 40.4013 199.485 40.56L201.459 46.16H201.137L203.125 40.532C203.191 40.364 203.27 40.252 203.363 40.196C203.457 40.1307 203.569 40.098 203.699 40.098C203.849 40.098 203.961 40.1353 204.035 40.21C204.119 40.2847 204.166 40.3827 204.175 40.504C204.185 40.6253 204.161 40.756 204.105 40.896L202.019 46.566C201.954 46.7433 201.856 46.8787 201.725 46.972C201.604 47.056 201.464 47.098 201.305 47.098C201.147 47.098 201.007 47.056 200.885 46.972C200.764 46.8787 200.671 46.7433 200.605 46.566L198.533 40.882H199.135L197.077 46.566C197.012 46.7433 196.919 46.8787 196.797 46.972C196.676 47.056 196.531 47.098 196.363 47.098ZM208.753 47.126C208.034 47.126 207.414 46.986 206.891 46.706C206.378 46.4167 205.976 46.0107 205.687 45.488C205.407 44.9653 205.267 44.34 205.267 43.612C205.267 42.9027 205.407 42.2867 205.687 41.764C205.967 41.232 206.35 40.8167 206.835 40.518C207.33 40.2193 207.899 40.07 208.543 40.07C209 40.07 209.411 40.1493 209.775 40.308C210.139 40.4573 210.447 40.6767 210.699 40.966C210.96 41.2553 211.156 41.6053 211.287 42.016C211.427 42.4267 211.497 42.8887 211.497 43.402C211.497 43.5513 211.455 43.6633 211.371 43.738C211.287 43.8033 211.166 43.836 211.007 43.836H206.135V43.094H210.741L210.517 43.276C210.517 42.772 210.442 42.3473 210.293 42.002C210.144 41.6473 209.924 41.3767 209.635 41.19C209.355 41.0033 209 40.91 208.571 40.91C208.095 40.91 207.689 41.022 207.353 41.246C207.026 41.4607 206.779 41.764 206.611 42.156C206.443 42.5387 206.359 42.9867 206.359 43.5V43.584C206.359 44.4427 206.564 45.096 206.975 45.544C207.395 45.992 207.988 46.216 208.753 46.216C209.07 46.216 209.383 46.174 209.691 46.09C210.008 46.006 210.316 45.866 210.615 45.67C210.746 45.586 210.862 45.5487 210.965 45.558C211.077 45.558 211.166 45.5907 211.231 45.656C211.296 45.712 211.338 45.7867 211.357 45.88C211.385 45.964 211.376 46.0573 211.329 46.16C211.292 46.2627 211.212 46.3513 211.091 46.426C210.783 46.65 210.419 46.8227 209.999 46.944C209.579 47.0653 209.164 47.126 208.753 47.126ZM215.28 47.126C214.814 47.126 214.394 47.0373 214.02 46.86C213.656 46.6733 213.367 46.4213 213.152 46.104C212.938 45.7867 212.83 45.432 212.83 45.04C212.83 44.536 212.956 44.1393 213.208 43.85C213.47 43.5607 213.894 43.3553 214.482 43.234C215.08 43.1127 215.892 43.052 216.918 43.052H217.548V43.794H216.932C216.176 43.794 215.579 43.8313 215.14 43.906C214.711 43.9713 214.408 44.088 214.23 44.256C214.062 44.424 213.978 44.662 213.978 44.97C213.978 45.3527 214.109 45.6653 214.37 45.908C214.641 46.1507 215.005 46.272 215.462 46.272C215.836 46.272 216.162 46.1833 216.442 46.006C216.732 45.8287 216.956 45.586 217.114 45.278C217.282 44.97 217.366 44.6153 217.366 44.214V42.618C217.366 42.0393 217.25 41.624 217.016 41.372C216.783 41.1107 216.4 40.98 215.868 40.98C215.542 40.98 215.215 41.022 214.888 41.106C214.562 41.19 214.216 41.3253 213.852 41.512C213.722 41.5773 213.61 41.6007 213.516 41.582C213.423 41.554 213.348 41.5027 213.292 41.428C213.236 41.3533 213.204 41.2693 213.194 41.176C213.185 41.0733 213.204 40.9753 213.25 40.882C213.306 40.7887 213.39 40.714 213.502 40.658C213.913 40.4527 214.319 40.3033 214.72 40.21C215.122 40.1167 215.504 40.07 215.868 40.07C216.456 40.07 216.942 40.168 217.324 40.364C217.707 40.5507 217.992 40.84 218.178 41.232C218.365 41.6147 218.458 42.1093 218.458 42.716V46.51C218.458 46.6967 218.412 46.8413 218.318 46.944C218.234 47.0467 218.108 47.098 217.94 47.098C217.763 47.098 217.628 47.0467 217.534 46.944C217.441 46.8413 217.394 46.6967 217.394 46.51V45.418H217.52C217.446 45.7727 217.301 46.076 217.086 46.328C216.881 46.58 216.624 46.776 216.316 46.916C216.008 47.056 215.663 47.126 215.28 47.126ZM223.292 47.126C222.76 47.126 222.312 47.0327 221.948 46.846C221.593 46.65 221.327 46.37 221.15 46.006C220.973 45.6327 220.884 45.18 220.884 44.648V41.078H219.946C219.787 41.078 219.666 41.0407 219.582 40.966C219.498 40.882 219.456 40.77 219.456 40.63C219.456 40.49 219.498 40.3827 219.582 40.308C219.666 40.2333 219.787 40.196 219.946 40.196H220.884V38.586C220.884 38.3993 220.935 38.2593 221.038 38.166C221.141 38.0633 221.281 38.012 221.458 38.012C221.635 38.012 221.771 38.0633 221.864 38.166C221.967 38.2593 222.018 38.3993 222.018 38.586V40.196H223.782C223.941 40.196 224.062 40.2333 224.146 40.308C224.23 40.3827 224.272 40.49 224.272 40.63C224.272 40.77 224.23 40.882 224.146 40.966C224.062 41.0407 223.941 41.078 223.782 41.078H222.018V44.536C222.018 45.068 222.13 45.474 222.354 45.754C222.578 46.0247 222.942 46.16 223.446 46.16C223.623 46.16 223.773 46.1413 223.894 46.104C224.025 46.0667 224.132 46.048 224.216 46.048C224.3 46.0387 224.37 46.0667 224.426 46.132C224.482 46.1973 224.51 46.3093 224.51 46.468C224.51 46.58 224.487 46.6827 224.44 46.776C224.403 46.8693 224.333 46.9347 224.23 46.972C224.118 47.0093 223.969 47.042 223.782 47.07C223.605 47.1073 223.441 47.126 223.292 47.126ZM226.099 47.098C225.912 47.098 225.772 47.0467 225.679 46.944C225.585 46.8413 225.539 46.6967 225.539 46.51V37.606C225.539 37.4193 225.585 37.2793 225.679 37.186C225.772 37.0833 225.912 37.032 226.099 37.032C226.276 37.032 226.416 37.0833 226.519 37.186C226.621 37.2793 226.673 37.4193 226.673 37.606V41.708H226.491C226.687 41.1667 227.004 40.7607 227.443 40.49C227.891 40.21 228.404 40.07 228.983 40.07C229.524 40.07 229.972 40.168 230.327 40.364C230.691 40.56 230.961 40.8587 231.139 41.26C231.316 41.652 231.405 42.1513 231.405 42.758V46.51C231.405 46.6967 231.353 46.8413 231.251 46.944C231.157 47.0467 231.022 47.098 230.845 47.098C230.658 47.098 230.513 47.0467 230.411 46.944C230.317 46.8413 230.271 46.6967 230.271 46.51V42.828C230.271 42.1933 230.145 41.7313 229.893 41.442C229.65 41.1433 229.258 40.994 228.717 40.994C228.091 40.994 227.592 41.19 227.219 41.582C226.855 41.9647 226.673 42.478 226.673 43.122V46.51C226.673 46.902 226.481 47.098 226.099 47.098ZM236.562 47.126C235.843 47.126 235.222 46.986 234.7 46.706C234.186 46.4167 233.785 46.0107 233.496 45.488C233.216 44.9653 233.076 44.34 233.076 43.612C233.076 42.9027 233.216 42.2867 233.496 41.764C233.776 41.232 234.158 40.8167 234.644 40.518C235.138 40.2193 235.708 40.07 236.352 40.07C236.809 40.07 237.22 40.1493 237.584 40.308C237.948 40.4573 238.256 40.6767 238.508 40.966C238.769 41.2553 238.965 41.6053 239.096 42.016C239.236 42.4267 239.306 42.8887 239.306 43.402C239.306 43.5513 239.264 43.6633 239.18 43.738C239.096 43.8033 238.974 43.836 238.816 43.836H233.944V43.094H238.55L238.326 43.276C238.326 42.772 238.251 42.3473 238.102 42.002C237.952 41.6473 237.733 41.3767 237.444 41.19C237.164 41.0033 236.809 40.91 236.38 40.91C235.904 40.91 235.498 41.022 235.162 41.246C234.835 41.4607 234.588 41.764 234.42 42.156C234.252 42.5387 234.168 42.9867 234.168 43.5V43.584C234.168 44.4427 234.373 45.096 234.784 45.544C235.204 45.992 235.796 46.216 236.562 46.216C236.879 46.216 237.192 46.174 237.5 46.09C237.817 46.006 238.125 45.866 238.424 45.67C238.554 45.586 238.671 45.5487 238.774 45.558C238.886 45.558 238.974 45.5907 239.04 45.656C239.105 45.712 239.147 45.7867 239.166 45.88C239.194 45.964 239.184 46.0573 239.138 46.16C239.1 46.2627 239.021 46.3513 238.9 46.426C238.592 46.65 238.228 46.8227 237.808 46.944C237.388 47.0653 236.972 47.126 236.562 47.126ZM241.521 47.098C241.334 47.098 241.189 47.0467 241.087 46.944C240.993 46.8413 240.947 46.6967 240.947 46.51V40.672C240.947 40.4853 240.993 40.3453 241.087 40.252C241.18 40.1493 241.315 40.098 241.493 40.098C241.67 40.098 241.805 40.1493 241.899 40.252C242.001 40.3453 242.053 40.4853 242.053 40.672V41.806H241.913C242.062 41.2553 242.347 40.8307 242.767 40.532C243.187 40.2333 243.705 40.0747 244.321 40.056C244.461 40.0467 244.573 40.0793 244.657 40.154C244.741 40.2193 244.787 40.336 244.797 40.504C244.806 40.6627 244.769 40.7887 244.685 40.882C244.601 40.9753 244.47 41.0313 244.293 41.05L244.069 41.078C243.434 41.134 242.944 41.3393 242.599 41.694C242.263 42.0393 242.095 42.5153 242.095 43.122V46.51C242.095 46.6967 242.043 46.8413 241.941 46.944C241.847 47.0467 241.707 47.098 241.521 47.098ZM250.498 47.098C250.32 47.098 250.18 47.0467 250.078 46.944C249.984 46.8413 249.938 46.6967 249.938 46.51V41.078H249.042C248.892 41.078 248.771 41.0407 248.678 40.966C248.594 40.882 248.552 40.77 248.552 40.63C248.552 40.49 248.594 40.3827 248.678 40.308C248.771 40.2333 248.892 40.196 249.042 40.196H250.246L249.938 40.49V39.958C249.938 39.0713 250.152 38.3947 250.582 37.928C251.02 37.4613 251.66 37.1907 252.5 37.116L252.906 37.074C253.036 37.0647 253.139 37.088 253.214 37.144C253.298 37.2 253.349 37.27 253.368 37.354C253.396 37.438 253.4 37.5267 253.382 37.62C253.363 37.704 253.321 37.7787 253.256 37.844C253.19 37.9093 253.111 37.9467 253.018 37.956L252.696 37.984C252.126 38.0307 251.711 38.2033 251.45 38.502C251.198 38.8007 251.072 39.2393 251.072 39.818V40.406L250.904 40.196H252.584C252.742 40.196 252.864 40.2333 252.948 40.308C253.032 40.3827 253.074 40.49 253.074 40.63C253.074 40.77 253.032 40.882 252.948 40.966C252.864 41.0407 252.742 41.078 252.584 41.078H251.072V46.51C251.072 46.902 250.88 47.098 250.498 47.098ZM256.872 47.126C256.21 47.126 255.636 46.9813 255.15 46.692C254.665 46.4027 254.287 45.9967 254.016 45.474C253.755 44.942 253.624 44.3167 253.624 43.598C253.624 43.0567 253.699 42.5713 253.848 42.142C253.998 41.7033 254.217 41.33 254.506 41.022C254.796 40.714 255.136 40.4807 255.528 40.322C255.93 40.154 256.378 40.07 256.872 40.07C257.535 40.07 258.109 40.2147 258.594 40.504C259.08 40.7933 259.453 41.204 259.714 41.736C259.985 42.2587 260.12 42.8793 260.12 43.598C260.12 44.1393 260.046 44.6247 259.896 45.054C259.747 45.4833 259.528 45.8567 259.238 46.174C258.949 46.482 258.604 46.72 258.202 46.888C257.81 47.0467 257.367 47.126 256.872 47.126ZM256.872 46.216C257.292 46.216 257.661 46.1133 257.978 45.908C258.296 45.7027 258.538 45.404 258.706 45.012C258.884 44.62 258.972 44.1487 258.972 43.598C258.972 42.7487 258.781 42.1 258.398 41.652C258.025 41.204 257.516 40.98 256.872 40.98C256.443 40.98 256.07 41.0827 255.752 41.288C255.444 41.484 255.202 41.778 255.024 42.17C254.856 42.5527 254.772 43.0287 254.772 43.598C254.772 44.438 254.964 45.0867 255.346 45.544C255.729 45.992 256.238 46.216 256.872 46.216ZM262.398 47.098C262.211 47.098 262.066 47.0467 261.964 46.944C261.87 46.8413 261.824 46.6967 261.824 46.51V40.672C261.824 40.4853 261.87 40.3453 261.964 40.252C262.057 40.1493 262.192 40.098 262.37 40.098C262.547 40.098 262.682 40.1493 262.776 40.252C262.878 40.3453 262.93 40.4853 262.93 40.672V41.806H262.79C262.939 41.2553 263.224 40.8307 263.644 40.532C264.064 40.2333 264.582 40.0747 265.198 40.056C265.338 40.0467 265.45 40.0793 265.534 40.154C265.618 40.2193 265.664 40.336 265.674 40.504C265.683 40.6627 265.646 40.7887 265.562 40.882C265.478 40.9753 265.347 41.0313 265.17 41.05L264.946 41.078C264.311 41.134 263.821 41.3393 263.476 41.694C263.14 42.0393 262.972 42.5153 262.972 43.122V46.51C262.972 46.6967 262.92 46.8413 262.818 46.944C262.724 47.0467 262.584 47.098 262.398 47.098ZM269.825 47.126C269.107 47.126 268.486 46.986 267.963 46.706C267.45 46.4167 267.049 46.0107 266.759 45.488C266.479 44.9653 266.339 44.34 266.339 43.612C266.339 42.9027 266.479 42.2867 266.759 41.764C267.039 41.232 267.422 40.8167 267.907 40.518C268.402 40.2193 268.971 40.07 269.615 40.07C270.073 40.07 270.483 40.1493 270.847 40.308C271.211 40.4573 271.519 40.6767 271.771 40.966C272.033 41.2553 272.229 41.6053 272.359 42.016C272.499 42.4267 272.569 42.8887 272.569 43.402C272.569 43.5513 272.527 43.6633 272.443 43.738C272.359 43.8033 272.238 43.836 272.079 43.836H267.207V43.094H271.813L271.589 43.276C271.589 42.772 271.515 42.3473 271.365 42.002C271.216 41.6473 270.997 41.3767 270.707 41.19C270.427 41.0033 270.073 40.91 269.643 40.91C269.167 40.91 268.761 41.022 268.425 41.246C268.099 41.4607 267.851 41.764 267.683 42.156C267.515 42.5387 267.431 42.9867 267.431 43.5V43.584C267.431 44.4427 267.637 45.096 268.047 45.544C268.467 45.992 269.06 46.216 269.825 46.216C270.143 46.216 270.455 46.174 270.763 46.09C271.081 46.006 271.389 45.866 271.687 45.67C271.818 45.586 271.935 45.5487 272.037 45.558C272.149 45.558 272.238 45.5907 272.303 45.656C272.369 45.712 272.411 45.7867 272.429 45.88C272.457 45.964 272.448 46.0573 272.401 46.16C272.364 46.2627 272.285 46.3513 272.163 46.426C271.855 46.65 271.491 46.8227 271.071 46.944C270.651 47.0653 270.236 47.126 269.825 47.126ZM277.094 47.126C276.413 47.126 275.825 46.9767 275.33 46.678C274.836 46.3793 274.453 45.964 274.182 45.432C273.921 44.8907 273.79 44.2653 273.79 43.556C273.79 43.0147 273.865 42.5293 274.014 42.1C274.164 41.6707 274.383 41.3067 274.672 41.008C274.962 40.7 275.307 40.4667 275.708 40.308C276.119 40.1493 276.581 40.07 277.094 40.07C277.43 40.07 277.78 40.1213 278.144 40.224C278.508 40.3267 278.84 40.504 279.138 40.756C279.232 40.8213 279.292 40.9007 279.32 40.994C279.348 41.0873 279.348 41.1807 279.32 41.274C279.292 41.358 279.246 41.4327 279.18 41.498C279.115 41.554 279.031 41.5867 278.928 41.596C278.835 41.6053 278.737 41.5727 278.634 41.498C278.392 41.3113 278.144 41.1807 277.892 41.106C277.64 41.0313 277.398 40.994 277.164 40.994C276.8 40.994 276.483 41.0547 276.212 41.176C275.942 41.288 275.713 41.4513 275.526 41.666C275.34 41.8807 275.195 42.1467 275.092 42.464C274.999 42.7813 274.952 43.15 274.952 43.57C274.952 44.382 275.144 45.026 275.526 45.502C275.909 45.9687 276.455 46.202 277.164 46.202C277.398 46.202 277.636 46.1647 277.878 46.09C278.13 46.0153 278.382 45.8847 278.634 45.698C278.737 45.6233 278.835 45.5907 278.928 45.6C279.022 45.6093 279.101 45.6467 279.166 45.712C279.232 45.768 279.274 45.8427 279.292 45.936C279.32 46.0293 279.32 46.1227 279.292 46.216C279.264 46.3 279.204 46.3747 279.11 46.44C278.812 46.6827 278.485 46.86 278.13 46.972C277.776 47.0747 277.43 47.126 277.094 47.126ZM282.778 47.126C282.312 47.126 281.892 47.0373 281.518 46.86C281.154 46.6733 280.865 46.4213 280.65 46.104C280.436 45.7867 280.328 45.432 280.328 45.04C280.328 44.536 280.454 44.1393 280.706 43.85C280.968 43.5607 281.392 43.3553 281.98 43.234C282.578 43.1127 283.39 43.052 284.416 43.052H285.046V43.794H284.43C283.674 43.794 283.077 43.8313 282.638 43.906C282.209 43.9713 281.906 44.088 281.728 44.256C281.56 44.424 281.476 44.662 281.476 44.97C281.476 45.3527 281.607 45.6653 281.868 45.908C282.139 46.1507 282.503 46.272 282.96 46.272C283.334 46.272 283.66 46.1833 283.94 46.006C284.23 45.8287 284.454 45.586 284.612 45.278C284.78 44.97 284.864 44.6153 284.864 44.214V42.618C284.864 42.0393 284.748 41.624 284.514 41.372C284.281 41.1107 283.898 40.98 283.366 40.98C283.04 40.98 282.713 41.022 282.386 41.106C282.06 41.19 281.714 41.3253 281.35 41.512C281.22 41.5773 281.108 41.6007 281.014 41.582C280.921 41.554 280.846 41.5027 280.79 41.428C280.734 41.3533 280.702 41.2693 280.692 41.176C280.683 41.0733 280.702 40.9753 280.748 40.882C280.804 40.7887 280.888 40.714 281 40.658C281.411 40.4527 281.817 40.3033 282.218 40.21C282.62 40.1167 283.002 40.07 283.366 40.07C283.954 40.07 284.44 40.168 284.822 40.364C285.205 40.5507 285.49 40.84 285.676 41.232C285.863 41.6147 285.956 42.1093 285.956 42.716V46.51C285.956 46.6967 285.91 46.8413 285.816 46.944C285.732 47.0467 285.606 47.098 285.438 47.098C285.261 47.098 285.126 47.0467 285.032 46.944C284.939 46.8413 284.892 46.6967 284.892 46.51V45.418H285.018C284.944 45.7727 284.799 46.076 284.584 46.328C284.379 46.58 284.122 46.776 283.814 46.916C283.506 47.056 283.161 47.126 282.778 47.126ZM290.356 47.126C289.936 47.126 289.511 47.0747 289.082 46.972C288.662 46.8693 288.27 46.692 287.906 46.44C287.813 46.3747 287.747 46.3 287.71 46.216C287.673 46.1227 287.659 46.034 287.668 45.95C287.687 45.8567 287.724 45.7773 287.78 45.712C287.845 45.6467 287.92 45.6093 288.004 45.6C288.097 45.5813 288.2 45.6 288.312 45.656C288.676 45.88 289.026 46.0387 289.362 46.132C289.707 46.216 290.048 46.258 290.384 46.258C290.916 46.258 291.317 46.16 291.588 45.964C291.859 45.768 291.994 45.502 291.994 45.166C291.994 44.9047 291.905 44.6993 291.728 44.55C291.551 44.3913 291.271 44.27 290.888 44.186L289.614 43.906C289.026 43.7847 288.587 43.5747 288.298 43.276C288.018 42.9773 287.878 42.59 287.878 42.114C287.878 41.694 287.985 41.3347 288.2 41.036C288.424 40.728 288.737 40.49 289.138 40.322C289.539 40.154 290.006 40.07 290.538 40.07C290.949 40.07 291.336 40.126 291.7 40.238C292.073 40.3407 292.409 40.5087 292.708 40.742C292.801 40.8073 292.862 40.8867 292.89 40.98C292.927 41.064 292.932 41.1527 292.904 41.246C292.885 41.33 292.843 41.4047 292.778 41.47C292.713 41.526 292.633 41.5587 292.54 41.568C292.447 41.5773 292.349 41.5493 292.246 41.484C291.966 41.2973 291.681 41.162 291.392 41.078C291.103 40.9847 290.818 40.938 290.538 40.938C290.015 40.938 289.619 41.0407 289.348 41.246C289.077 41.4513 288.942 41.722 288.942 42.058C288.942 42.3193 289.026 42.534 289.194 42.702C289.362 42.87 289.623 42.9913 289.978 43.066L291.252 43.332C291.859 43.4627 292.311 43.6727 292.61 43.962C292.918 44.242 293.072 44.6247 293.072 45.11C293.072 45.726 292.825 46.216 292.33 46.58C291.835 46.944 291.177 47.126 290.356 47.126ZM297.462 47.126C296.93 47.126 296.482 47.0327 296.118 46.846C295.763 46.65 295.497 46.37 295.32 46.006C295.143 45.6327 295.054 45.18 295.054 44.648V41.078H294.116C293.957 41.078 293.836 41.0407 293.752 40.966C293.668 40.882 293.626 40.77 293.626 40.63C293.626 40.49 293.668 40.3827 293.752 40.308C293.836 40.2333 293.957 40.196 294.116 40.196H295.054V38.586C295.054 38.3993 295.105 38.2593 295.208 38.166C295.311 38.0633 295.451 38.012 295.628 38.012C295.805 38.012 295.941 38.0633 296.034 38.166C296.137 38.2593 296.188 38.3993 296.188 38.586V40.196H297.952C298.111 40.196 298.232 40.2333 298.316 40.308C298.4 40.3827 298.442 40.49 298.442 40.63C298.442 40.77 298.4 40.882 298.316 40.966C298.232 41.0407 298.111 41.078 297.952 41.078H296.188V44.536C296.188 45.068 296.3 45.474 296.524 45.754C296.748 46.0247 297.112 46.16 297.616 46.16C297.793 46.16 297.943 46.1413 298.064 46.104C298.195 46.0667 298.302 46.048 298.386 46.048C298.47 46.0387 298.54 46.0667 298.596 46.132C298.652 46.1973 298.68 46.3093 298.68 46.468C298.68 46.58 298.657 46.6827 298.61 46.776C298.573 46.8693 298.503 46.9347 298.4 46.972C298.288 47.0093 298.139 47.042 297.952 47.07C297.775 47.1073 297.611 47.126 297.462 47.126Z" fill="#BFBFD4"/>
</svg>
